<svg viewBox="0 0 1280 960" xmlns="http://www.w3.org/2000/svg"><defs>
 <radialGradient id="goldR" cx="0.4" cy="0.3" r="0.85"><stop offset="0" stop-color="#FFF0A8"/><stop offset="0.5" stop-color="#FFD23E"/><stop offset="1" stop-color="#E08A00"/></radialGradient>
 <linearGradient id="goldBar" x1="0" y1="0" x2="0" y2="1"><stop offset="0" stop-color="#FFE27A"/><stop offset="1" stop-color="#E89200"/></linearGradient>
 <linearGradient id="tealBar" x1="0" y1="0" x2="0" y2="1"><stop offset="0" stop-color="#5FE6D6"/><stop offset="1" stop-color="#0E9082"/></linearGradient>
 <linearGradient id="coralBar" x1="0" y1="0" x2="0" y2="1"><stop offset="0" stop-color="#FF9097"/><stop offset="1" stop-color="#E23B40"/></linearGradient>
 <linearGradient id="blueBar" x1="0" y1="0" x2="0" y2="1"><stop offset="0" stop-color="#8FB8FF"/><stop offset="1" stop-color="#3A6FD8"/></linearGradient>
 <linearGradient id="plaque" x1="0" y1="0" x2="0" y2="1"><stop offset="0" stop-color="#23397A"/><stop offset="1" stop-color="#0B1430"/></linearGradient>
 <radialGradient id="vig" cx="0.5" cy="0.46" r="0.72"><stop offset="0.62" stop-color="#000" stop-opacity="0"/><stop offset="1" stop-color="#000" stop-opacity="0.32"/></radialGradient>
 <filter id="sh" x="-40%" y="-40%" width="180%" height="180%"><feDropShadow dx="0" dy="6" stdDeviation="6" flood-color="#0A1638" flood-opacity="0.4"/></filter>
 <filter id="sh2" x="-50%" y="-50%" width="200%" height="200%"><feDropShadow dx="0" dy="3" stdDeviation="4" flood-color="#0A1638" flood-opacity="0.45"/></filter>
</defs><rect x="60" y="60" width="1160" height="840" rx="40" fill="url(#vig)"/><rect x="28" y="28" width="1224" height="904" rx="52" fill="none" stroke="#0B1430" stroke-width="62"/><rect x="28" y="28" width="1224" height="904" rx="52" fill="none" stroke="url(#coralBar)" stroke-width="40"/><rect x="44" y="44" width="1192" height="872" rx="44" fill="none" stroke="#fff" stroke-width="4" opacity="0.45"/><g filter="url(#sh2)"><rect x="120" y="80" width="1040" height="46" fill="#fff"/><rect x="120.0" y="80.0" width="45.2" height="46.0" fill="#10204A"/><rect x="210.4" y="80.0" width="45.2" height="46.0" fill="#10204A"/><rect x="300.9" y="80.0" width="45.2" height="46.0" fill="#10204A"/><rect x="391.3" y="80.0" width="45.2" height="46.0" fill="#10204A"/><rect x="481.7" y="80.0" width="45.2" height="46.0" fill="#10204A"/><rect x="572.2" y="80.0" width="45.2" height="46.0" fill="#10204A"/><rect x="662.6" y="80.0" width="45.2" height="46.0" fill="#10204A"/><rect x="753.0" y="80.0" width="45.2" height="46.0" fill="#10204A"/><rect x="843.5" y="80.0" width="45.2" height="46.0" fill="#10204A"/><rect x="933.9" y="80.0" width="45.2" height="46.0" fill="#10204A"/><rect x="1024.3" y="80.0" width="45.2" height="46.0" fill="#10204A"/><rect x="1114.8" y="80.0" width="45.2" height="46.0" fill="#10204A"/></g><g filter="url(#sh2)"><circle cx="96" cy="864" r="40" fill="url(#goldR)" stroke="#9A6300" stroke-width="6"/><circle cx="96" cy="864" r="24" fill="none" stroke="#C99A00" stroke-width="5"/><path d="M78,844 a 26 26 0 0 1 36,0" fill="none" stroke="#FFF6C8" stroke-width="6" stroke-linecap="round" opacity="0.9"/></g><g filter="url(#sh2)"><circle cx="1184" cy="864" r="40" fill="url(#goldR)" stroke="#9A6300" stroke-width="6"/><circle cx="1184" cy="864" r="24" fill="none" stroke="#C99A00" stroke-width="5"/><path d="M1166,844 a 26 26 0 0 1 36,0" fill="none" stroke="#FFF6C8" stroke-width="6" stroke-linecap="round" opacity="0.9"/></g><g filter="url(#sh)"><rect x="288" y="780" width="704" height="156" rx="22" fill="url(#goldR)" stroke="#9A6300" stroke-width="4"/><rect x="300" y="792" width="680" height="132" rx="14" fill="url(#plaque)"/><rect x="314" y="802" width="652" height="12" rx="6" fill="#fff" opacity="0.16"/><circle cx="300" cy="792" r="8" fill="#FFE27A" stroke="#C99A00" stroke-width="2"/><circle cx="300" cy="924" r="8" fill="#FFE27A" stroke="#C99A00" stroke-width="2"/><circle cx="385" cy="792" r="8" fill="#FFE27A" stroke="#C99A00" stroke-width="2"/><circle cx="385" cy="924" r="8" fill="#FFE27A" stroke="#C99A00" stroke-width="2"/><circle cx="470" cy="792" r="8" fill="#FFE27A" stroke="#C99A00" stroke-width="2"/><circle cx="470" cy="924" r="8" fill="#FFE27A" stroke="#C99A00" stroke-width="2"/><circle cx="555" cy="792" r="8" fill="#FFE27A" stroke="#C99A00" stroke-width="2"/><circle cx="555" cy="924" r="8" fill="#FFE27A" stroke="#C99A00" stroke-width="2"/><circle cx="640" cy="792" r="8" fill="#FFE27A" stroke="#C99A00" stroke-width="2"/><circle cx="640" cy="924" r="8" fill="#FFE27A" stroke="#C99A00" stroke-width="2"/><circle cx="725" cy="792" r="8" fill="#FFE27A" stroke="#C99A00" stroke-width="2"/><circle cx="725" cy="924" r="8" fill="#FFE27A" stroke="#C99A00" stroke-width="2"/><circle cx="810" cy="792" r="8" fill="#FFE27A" stroke="#C99A00" stroke-width="2"/><circle cx="810" cy="924" r="8" fill="#FFE27A" stroke="#C99A00" stroke-width="2"/><circle cx="895" cy="792" r="8" fill="#FFE27A" stroke="#C99A00" stroke-width="2"/><circle cx="895" cy="924" r="8" fill="#FFE27A" stroke="#C99A00" stroke-width="2"/><circle cx="980" cy="792" r="8" fill="#FFE27A" stroke="#C99A00" stroke-width="2"/><circle cx="980" cy="924" r="8" fill="#FFE27A" stroke="#C99A00" stroke-width="2"/><circle cx="300" cy="858" r="8" fill="#FFE27A" stroke="#C99A00" stroke-width="2"/><circle cx="980" cy="858" r="8" fill="#FFE27A" stroke="#C99A00" stroke-width="2"/></g></svg>