<svg viewBox="0 0 960 1280" xmlns="http://www.w3.org/2000/svg"><defs>
 <radialGradient id="goldR" cx="0.4" cy="0.3" r="0.85"><stop offset="0" stop-color="#FFF0A8"/><stop offset="0.5" stop-color="#FFD23E"/><stop offset="1" stop-color="#E08A00"/></radialGradient>
 <linearGradient id="goldBar" x1="0" y1="0" x2="0" y2="1"><stop offset="0" stop-color="#FFE27A"/><stop offset="1" stop-color="#E89200"/></linearGradient>
 <linearGradient id="tealBar" x1="0" y1="0" x2="0" y2="1"><stop offset="0" stop-color="#5FE6D6"/><stop offset="1" stop-color="#0E9082"/></linearGradient>
 <linearGradient id="coralBar" x1="0" y1="0" x2="0" y2="1"><stop offset="0" stop-color="#FF9097"/><stop offset="1" stop-color="#E23B40"/></linearGradient>
 <linearGradient id="blueBar" x1="0" y1="0" x2="0" y2="1"><stop offset="0" stop-color="#8FB8FF"/><stop offset="1" stop-color="#3A6FD8"/></linearGradient>
 <linearGradient id="plaque" x1="0" y1="0" x2="0" y2="1"><stop offset="0" stop-color="#23397A"/><stop offset="1" stop-color="#0B1430"/></linearGradient>
 <radialGradient id="vig" cx="0.5" cy="0.46" r="0.72"><stop offset="0.62" stop-color="#000" stop-opacity="0"/><stop offset="1" stop-color="#000" stop-opacity="0.32"/></radialGradient>
 <filter id="sh" x="-40%" y="-40%" width="180%" height="180%"><feDropShadow dx="0" dy="6" stdDeviation="6" flood-color="#0A1638" flood-opacity="0.4"/></filter>
 <filter id="sh2" x="-50%" y="-50%" width="200%" height="200%"><feDropShadow dx="0" dy="3" stdDeviation="4" flood-color="#0A1638" flood-opacity="0.45"/></filter>
</defs><rect x="60" y="60" width="840" height="1160" rx="40" fill="url(#vig)"/><rect x="28" y="28" width="904" height="1224" rx="52" fill="none" stroke="#0B1430" stroke-width="62"/><rect x="28" y="28" width="904" height="1224" rx="52" fill="none" stroke="url(#blueBar)" stroke-width="40"/><rect x="44" y="44" width="872" height="1192" rx="44" fill="none" stroke="#fff" stroke-width="4" opacity="0.45"/><g filter="url(#sh2)"><rect x="218" y="64" width="64" height="64" rx="12" fill="url(#goldBar)" stroke="#7A4A06" stroke-width="6"/><rect x="226" y="72" width="48" height="10" rx="5" fill="#fff" opacity="0.5"/><g filter="url(#sh2)"><path d="M249.6,76.8 L254.9,88.8 L267.9,90.1 L258.1,98.8 L260.9,111.5 L249.6,105.0 L238.3,111.5 L241.1,98.8 L231.3,90.1 L244.3,88.8 Z" fill="url(#goldBar)" stroke="#0B1430" stroke-width="6" stroke-linejoin="round"/><path d="M246,87 q 4 -3 8 0" fill="none" stroke="#fff" stroke-width="5" stroke-linecap="round" opacity="0.6"/></g></g><g filter="url(#sh2)"><rect x="448" y="64" width="64" height="64" rx="12" fill="url(#goldBar)" stroke="#7A4A06" stroke-width="6"/><rect x="456" y="72" width="48" height="10" rx="5" fill="#fff" opacity="0.5"/><g filter="url(#sh2)"><path d="M480.0,76.8 L485.3,88.8 L498.3,90.1 L488.5,98.8 L491.3,111.5 L480.0,105.0 L468.7,111.5 L471.5,98.8 L461.7,90.1 L474.7,88.8 Z" fill="url(#goldBar)" stroke="#0B1430" stroke-width="6" stroke-linejoin="round"/><path d="M476,87 q 4 -3 8 0" fill="none" stroke="#fff" stroke-width="5" stroke-linecap="round" opacity="0.6"/></g></g><g filter="url(#sh2)"><rect x="678" y="64" width="64" height="64" rx="12" fill="url(#goldBar)" stroke="#7A4A06" stroke-width="6"/><rect x="686" y="72" width="48" height="10" rx="5" fill="#fff" opacity="0.5"/><g filter="url(#sh2)"><path d="M710.4,76.8 L715.7,88.8 L728.7,90.1 L718.9,98.8 L721.7,111.5 L710.4,105.0 L699.1,111.5 L701.9,98.8 L692.1,90.1 L705.1,88.8 Z" fill="url(#goldBar)" stroke="#0B1430" stroke-width="6" stroke-linejoin="round"/><path d="M707,87 q 4 -3 8 0" fill="none" stroke="#fff" stroke-width="5" stroke-linecap="round" opacity="0.6"/></g></g><path d="M180,160 Q480,250 780,160" fill="none" stroke="#0B1430" stroke-width="4"/><path d="M180,160 l46,5 l-20,46 Z" fill="#FFC93C" stroke="#0B1430" stroke-width="3"/><path d="M300,218 l46,5 l-20,46 Z" fill="#1EC7B4" stroke="#0B1430" stroke-width="3"/><path d="M420,246 l46,5 l-20,46 Z" fill="#FF5E62" stroke="#0B1430" stroke-width="3"/><path d="M540,246 l46,5 l-20,46 Z" fill="#FFFFFF" stroke="#0B1430" stroke-width="3"/><path d="M660,218 l46,5 l-20,46 Z" fill="#1EC7B4" stroke="#0B1430" stroke-width="3"/><path d="M780,160 l46,5 l-20,46 Z" fill="#FFC93C" stroke="#0B1430" stroke-width="3"/><g filter="url(#sh2)"><circle cx="96" cy="1184" r="40" fill="url(#goldR)" stroke="#9A6300" stroke-width="6"/><circle cx="96" cy="1184" r="24" fill="none" stroke="#C99A00" stroke-width="5"/><path d="M78,1164 a 26 26 0 0 1 36,0" fill="none" stroke="#FFF6C8" stroke-width="6" stroke-linecap="round" opacity="0.9"/></g><g filter="url(#sh2)"><circle cx="864" cy="1184" r="40" fill="url(#goldR)" stroke="#9A6300" stroke-width="6"/><circle cx="864" cy="1184" r="24" fill="none" stroke="#C99A00" stroke-width="5"/><path d="M846,1164 a 26 26 0 0 1 36,0" fill="none" stroke="#FFF6C8" stroke-width="6" stroke-linecap="round" opacity="0.9"/></g><g filter="url(#sh)"><rect x="128" y="1044" width="704" height="156" rx="22" fill="url(#goldR)" stroke="#9A6300" stroke-width="4"/><rect x="140" y="1056" width="680" height="132" rx="14" fill="url(#plaque)"/><rect x="154" y="1066" width="652" height="12" rx="6" fill="#fff" opacity="0.16"/><circle cx="140" cy="1056" r="8" fill="#FFE27A" stroke="#C99A00" stroke-width="2"/><circle cx="140" cy="1188" r="8" fill="#FFE27A" stroke="#C99A00" stroke-width="2"/><circle cx="225" cy="1056" r="8" fill="#FFE27A" stroke="#C99A00" stroke-width="2"/><circle cx="225" cy="1188" r="8" fill="#FFE27A" stroke="#C99A00" stroke-width="2"/><circle cx="310" cy="1056" r="8" fill="#FFE27A" stroke="#C99A00" stroke-width="2"/><circle cx="310" cy="1188" r="8" fill="#FFE27A" stroke="#C99A00" stroke-width="2"/><circle cx="395" cy="1056" r="8" fill="#FFE27A" stroke="#C99A00" stroke-width="2"/><circle cx="395" cy="1188" r="8" fill="#FFE27A" stroke="#C99A00" stroke-width="2"/><circle cx="480" cy="1056" r="8" fill="#FFE27A" stroke="#C99A00" stroke-width="2"/><circle cx="480" cy="1188" r="8" fill="#FFE27A" stroke="#C99A00" stroke-width="2"/><circle cx="565" cy="1056" r="8" fill="#FFE27A" stroke="#C99A00" stroke-width="2"/><circle cx="565" cy="1188" r="8" fill="#FFE27A" stroke="#C99A00" stroke-width="2"/><circle cx="650" cy="1056" r="8" fill="#FFE27A" stroke="#C99A00" stroke-width="2"/><circle cx="650" cy="1188" r="8" fill="#FFE27A" stroke="#C99A00" stroke-width="2"/><circle cx="735" cy="1056" r="8" fill="#FFE27A" stroke="#C99A00" stroke-width="2"/><circle cx="735" cy="1188" r="8" fill="#FFE27A" stroke="#C99A00" stroke-width="2"/><circle cx="820" cy="1056" r="8" fill="#FFE27A" stroke="#C99A00" stroke-width="2"/><circle cx="820" cy="1188" r="8" fill="#FFE27A" stroke="#C99A00" stroke-width="2"/><circle cx="140" cy="1122" r="8" fill="#FFE27A" stroke="#C99A00" stroke-width="2"/><circle cx="820" cy="1122" r="8" fill="#FFE27A" stroke="#C99A00" stroke-width="2"/></g></svg>