<svg viewBox="0 0 1280 960" xmlns="http://www.w3.org/2000/svg"><defs>
 <radialGradient id="goldR" cx="0.4" cy="0.3" r="0.85"><stop offset="0" stop-color="#FFF0A8"/><stop offset="0.5" stop-color="#FFD23E"/><stop offset="1" stop-color="#E08A00"/></radialGradient>
 <linearGradient id="goldBar" x1="0" y1="0" x2="0" y2="1"><stop offset="0" stop-color="#FFE27A"/><stop offset="1" stop-color="#E89200"/></linearGradient>
 <linearGradient id="tealBar" x1="0" y1="0" x2="0" y2="1"><stop offset="0" stop-color="#5FE6D6"/><stop offset="1" stop-color="#0E9082"/></linearGradient>
 <linearGradient id="coralBar" x1="0" y1="0" x2="0" y2="1"><stop offset="0" stop-color="#FF9097"/><stop offset="1" stop-color="#E23B40"/></linearGradient>
 <linearGradient id="blueBar" x1="0" y1="0" x2="0" y2="1"><stop offset="0" stop-color="#8FB8FF"/><stop offset="1" stop-color="#3A6FD8"/></linearGradient>
 <linearGradient id="plaque" x1="0" y1="0" x2="0" y2="1"><stop offset="0" stop-color="#23397A"/><stop offset="1" stop-color="#0B1430"/></linearGradient>
 <radialGradient id="vig" cx="0.5" cy="0.46" r="0.72"><stop offset="0.62" stop-color="#000" stop-opacity="0"/><stop offset="1" stop-color="#000" stop-opacity="0.32"/></radialGradient>
 <filter id="sh" x="-40%" y="-40%" width="180%" height="180%"><feDropShadow dx="0" dy="6" stdDeviation="6" flood-color="#0A1638" flood-opacity="0.4"/></filter>
 <filter id="sh2" x="-50%" y="-50%" width="200%" height="200%"><feDropShadow dx="0" dy="3" stdDeviation="4" flood-color="#0A1638" flood-opacity="0.45"/></filter>
</defs><rect x="60" y="60" width="1160" height="840" rx="40" fill="url(#vig)"/><rect x="28" y="28" width="1224" height="904" rx="52" fill="none" stroke="#0B1430" stroke-width="62"/><rect x="28" y="28" width="1224" height="904" rx="52" fill="none" stroke="url(#tealBar)" stroke-width="40"/><rect x="44" y="44" width="1192" height="872" rx="44" fill="none" stroke="#fff" stroke-width="4" opacity="0.45"/><g filter="url(#sh2)"><path d="M100.0,40.0 L116.5,77.3 L157.1,81.5 L126.6,108.7 L135.3,148.5 L100.0,128.0 L64.7,148.5 L73.4,108.7 L42.9,81.5 L83.5,77.3 Z" fill="url(#coralBar)" stroke="#0B1430" stroke-width="6" stroke-linejoin="round"/><path d="M88,73 q 12 -11 24 0" fill="none" stroke="#fff" stroke-width="5" stroke-linecap="round" opacity="0.6"/></g><g filter="url(#sh2)"><path d="M1180.0,40.0 L1196.5,77.3 L1237.1,81.5 L1206.6,108.7 L1215.3,148.5 L1180.0,128.0 L1144.7,148.5 L1153.4,108.7 L1122.9,81.5 L1163.5,77.3 Z" fill="url(#coralBar)" stroke="#0B1430" stroke-width="6" stroke-linejoin="round"/><path d="M1168,73 q 12 -11 24 0" fill="none" stroke="#fff" stroke-width="5" stroke-linecap="round" opacity="0.6"/></g><g filter="url(#sh2)"><path d="M100.0,800.0 L116.5,837.3 L157.1,841.5 L126.6,868.7 L135.3,908.5 L100.0,888.0 L64.7,908.5 L73.4,868.7 L42.9,841.5 L83.5,837.3 Z" fill="url(#coralBar)" stroke="#0B1430" stroke-width="6" stroke-linejoin="round"/><path d="M88,833 q 12 -11 24 0" fill="none" stroke="#fff" stroke-width="5" stroke-linecap="round" opacity="0.6"/></g><g filter="url(#sh2)"><path d="M1180.0,800.0 L1196.5,837.3 L1237.1,841.5 L1206.6,868.7 L1215.3,908.5 L1180.0,888.0 L1144.7,908.5 L1153.4,868.7 L1122.9,841.5 L1163.5,837.3 Z" fill="url(#coralBar)" stroke="#0B1430" stroke-width="6" stroke-linejoin="round"/><path d="M1168,833 q 12 -11 24 0" fill="none" stroke="#fff" stroke-width="5" stroke-linecap="round" opacity="0.6"/></g><g filter="url(#sh2)"><path d="M512.0,40.0 L520.2,58.7 L540.5,60.7 L525.3,74.3 L529.6,94.3 L512.0,84.0 L494.4,94.3 L498.7,74.3 L483.5,60.7 L503.8,58.7 Z" fill="url(#goldBar)" stroke="#0B1430" stroke-width="6" stroke-linejoin="round"/><path d="M506,56 q 6 -5 12 0" fill="none" stroke="#fff" stroke-width="5" stroke-linecap="round" opacity="0.6"/></g><g filter="url(#sh2)"><path d="M640.0,24.0 L650.0,46.2 L674.2,48.9 L656.2,65.3 L661.2,89.1 L640.0,77.0 L618.8,89.1 L623.8,65.3 L605.8,48.9 L630.0,46.2 Z" fill="url(#goldBar)" stroke="#0B1430" stroke-width="6" stroke-linejoin="round"/><path d="M633,44 q 7 -6 14 0" fill="none" stroke="#fff" stroke-width="5" stroke-linecap="round" opacity="0.6"/></g><g filter="url(#sh2)"><path d="M768.0,40.0 L776.2,58.7 L796.5,60.7 L781.3,74.3 L785.6,94.3 L768.0,84.0 L750.4,94.3 L754.7,74.3 L739.5,60.7 L759.8,58.7 Z" fill="url(#goldBar)" stroke="#0B1430" stroke-width="6" stroke-linejoin="round"/><path d="M762,56 q 6 -5 12 0" fill="none" stroke="#fff" stroke-width="5" stroke-linecap="round" opacity="0.6"/></g><g filter="url(#sh)"><rect x="288" y="780" width="704" height="156" rx="22" fill="url(#goldR)" stroke="#9A6300" stroke-width="4"/><rect x="300" y="792" width="680" height="132" rx="14" fill="url(#plaque)"/><rect x="314" y="802" width="652" height="12" rx="6" fill="#fff" opacity="0.16"/><circle cx="300" cy="792" r="8" fill="#FFE27A" stroke="#C99A00" stroke-width="2"/><circle cx="300" cy="924" r="8" fill="#FFE27A" stroke="#C99A00" stroke-width="2"/><circle cx="385" cy="792" r="8" fill="#FFE27A" stroke="#C99A00" stroke-width="2"/><circle cx="385" cy="924" r="8" fill="#FFE27A" stroke="#C99A00" stroke-width="2"/><circle cx="470" cy="792" r="8" fill="#FFE27A" stroke="#C99A00" stroke-width="2"/><circle cx="470" cy="924" r="8" fill="#FFE27A" stroke="#C99A00" stroke-width="2"/><circle cx="555" cy="792" r="8" fill="#FFE27A" stroke="#C99A00" stroke-width="2"/><circle cx="555" cy="924" r="8" fill="#FFE27A" stroke="#C99A00" stroke-width="2"/><circle cx="640" cy="792" r="8" fill="#FFE27A" stroke="#C99A00" stroke-width="2"/><circle cx="640" cy="924" r="8" fill="#FFE27A" stroke="#C99A00" stroke-width="2"/><circle cx="725" cy="792" r="8" fill="#FFE27A" stroke="#C99A00" stroke-width="2"/><circle cx="725" cy="924" r="8" fill="#FFE27A" stroke="#C99A00" stroke-width="2"/><circle cx="810" cy="792" r="8" fill="#FFE27A" stroke="#C99A00" stroke-width="2"/><circle cx="810" cy="924" r="8" fill="#FFE27A" stroke="#C99A00" stroke-width="2"/><circle cx="895" cy="792" r="8" fill="#FFE27A" stroke="#C99A00" stroke-width="2"/><circle cx="895" cy="924" r="8" fill="#FFE27A" stroke="#C99A00" stroke-width="2"/><circle cx="980" cy="792" r="8" fill="#FFE27A" stroke="#C99A00" stroke-width="2"/><circle cx="980" cy="924" r="8" fill="#FFE27A" stroke="#C99A00" stroke-width="2"/><circle cx="300" cy="858" r="8" fill="#FFE27A" stroke="#C99A00" stroke-width="2"/><circle cx="980" cy="858" r="8" fill="#FFE27A" stroke="#C99A00" stroke-width="2"/></g></svg>