<svg viewBox="0 0 960 1280" xmlns="http://www.w3.org/2000/svg"><defs>
 <radialGradient id="goldR" cx="0.4" cy="0.3" r="0.85"><stop offset="0" stop-color="#FFF0A8"/><stop offset="0.5" stop-color="#FFD23E"/><stop offset="1" stop-color="#E08A00"/></radialGradient>
 <linearGradient id="goldBar" x1="0" y1="0" x2="0" y2="1"><stop offset="0" stop-color="#FFE27A"/><stop offset="1" stop-color="#E89200"/></linearGradient>
 <linearGradient id="tealBar" x1="0" y1="0" x2="0" y2="1"><stop offset="0" stop-color="#5FE6D6"/><stop offset="1" stop-color="#0E9082"/></linearGradient>
 <linearGradient id="coralBar" x1="0" y1="0" x2="0" y2="1"><stop offset="0" stop-color="#FF9097"/><stop offset="1" stop-color="#E23B40"/></linearGradient>
 <linearGradient id="blueBar" x1="0" y1="0" x2="0" y2="1"><stop offset="0" stop-color="#8FB8FF"/><stop offset="1" stop-color="#3A6FD8"/></linearGradient>
 <linearGradient id="plaque" x1="0" y1="0" x2="0" y2="1"><stop offset="0" stop-color="#23397A"/><stop offset="1" stop-color="#0B1430"/></linearGradient>
 <radialGradient id="vig" cx="0.5" cy="0.46" r="0.72"><stop offset="0.62" stop-color="#000" stop-opacity="0"/><stop offset="1" stop-color="#000" stop-opacity="0.32"/></radialGradient>
 <filter id="sh" x="-40%" y="-40%" width="180%" height="180%"><feDropShadow dx="0" dy="6" stdDeviation="6" flood-color="#0A1638" flood-opacity="0.4"/></filter>
 <filter id="sh2" x="-50%" y="-50%" width="200%" height="200%"><feDropShadow dx="0" dy="3" stdDeviation="4" flood-color="#0A1638" flood-opacity="0.45"/></filter>
</defs><rect x="60" y="60" width="840" height="1160" rx="40" fill="url(#vig)"/><rect x="28" y="28" width="904" height="1224" rx="52" fill="none" stroke="#0B1430" stroke-width="62"/><rect x="28" y="28" width="904" height="1224" rx="52" fill="none" stroke="url(#tealBar)" stroke-width="40"/><rect x="44" y="44" width="872" height="1192" rx="44" fill="none" stroke="#fff" stroke-width="4" opacity="0.45"/><g filter="url(#sh2)"><path d="M100.0,40.0 L116.5,77.3 L157.1,81.5 L126.6,108.7 L135.3,148.5 L100.0,128.0 L64.7,148.5 L73.4,108.7 L42.9,81.5 L83.5,77.3 Z" fill="url(#coralBar)" stroke="#0B1430" stroke-width="6" stroke-linejoin="round"/><path d="M88,73 q 12 -11 24 0" fill="none" stroke="#fff" stroke-width="5" stroke-linecap="round" opacity="0.6"/></g><g filter="url(#sh2)"><path d="M860.0,40.0 L876.5,77.3 L917.1,81.5 L886.6,108.7 L895.3,148.5 L860.0,128.0 L824.7,148.5 L833.4,108.7 L802.9,81.5 L843.5,77.3 Z" fill="url(#coralBar)" stroke="#0B1430" stroke-width="6" stroke-linejoin="round"/><path d="M848,73 q 12 -11 24 0" fill="none" stroke="#fff" stroke-width="5" stroke-linecap="round" opacity="0.6"/></g><g filter="url(#sh2)"><path d="M100.0,1120.0 L116.5,1157.3 L157.1,1161.5 L126.6,1188.7 L135.3,1228.5 L100.0,1208.0 L64.7,1228.5 L73.4,1188.7 L42.9,1161.5 L83.5,1157.3 Z" fill="url(#coralBar)" stroke="#0B1430" stroke-width="6" stroke-linejoin="round"/><path d="M88,1153 q 12 -11 24 0" fill="none" stroke="#fff" stroke-width="5" stroke-linecap="round" opacity="0.6"/></g><g filter="url(#sh2)"><path d="M860.0,1120.0 L876.5,1157.3 L917.1,1161.5 L886.6,1188.7 L895.3,1228.5 L860.0,1208.0 L824.7,1228.5 L833.4,1188.7 L802.9,1161.5 L843.5,1157.3 Z" fill="url(#coralBar)" stroke="#0B1430" stroke-width="6" stroke-linejoin="round"/><path d="M848,1153 q 12 -11 24 0" fill="none" stroke="#fff" stroke-width="5" stroke-linecap="round" opacity="0.6"/></g><g filter="url(#sh2)"><path d="M384.0,40.0 L392.2,58.7 L412.5,60.7 L397.3,74.3 L401.6,94.3 L384.0,84.0 L366.4,94.3 L370.7,74.3 L355.5,60.7 L375.8,58.7 Z" fill="url(#goldBar)" stroke="#0B1430" stroke-width="6" stroke-linejoin="round"/><path d="M378,56 q 6 -5 12 0" fill="none" stroke="#fff" stroke-width="5" stroke-linecap="round" opacity="0.6"/></g><g filter="url(#sh2)"><path d="M480.0,24.0 L490.0,46.2 L514.2,48.9 L496.2,65.3 L501.2,89.1 L480.0,77.0 L458.8,89.1 L463.8,65.3 L445.8,48.9 L470.0,46.2 Z" fill="url(#goldBar)" stroke="#0B1430" stroke-width="6" stroke-linejoin="round"/><path d="M473,44 q 7 -6 14 0" fill="none" stroke="#fff" stroke-width="5" stroke-linecap="round" opacity="0.6"/></g><g filter="url(#sh2)"><path d="M576.0,40.0 L584.2,58.7 L604.5,60.7 L589.3,74.3 L593.6,94.3 L576.0,84.0 L558.4,94.3 L562.7,74.3 L547.5,60.7 L567.8,58.7 Z" fill="url(#goldBar)" stroke="#0B1430" stroke-width="6" stroke-linejoin="round"/><path d="M570,56 q 6 -5 12 0" fill="none" stroke="#fff" stroke-width="5" stroke-linecap="round" opacity="0.6"/></g><g filter="url(#sh)"><rect x="128" y="1044" width="704" height="156" rx="22" fill="url(#goldR)" stroke="#9A6300" stroke-width="4"/><rect x="140" y="1056" width="680" height="132" rx="14" fill="url(#plaque)"/><rect x="154" y="1066" width="652" height="12" rx="6" fill="#fff" opacity="0.16"/><circle cx="140" cy="1056" r="8" fill="#FFE27A" stroke="#C99A00" stroke-width="2"/><circle cx="140" cy="1188" r="8" fill="#FFE27A" stroke="#C99A00" stroke-width="2"/><circle cx="225" cy="1056" r="8" fill="#FFE27A" stroke="#C99A00" stroke-width="2"/><circle cx="225" cy="1188" r="8" fill="#FFE27A" stroke="#C99A00" stroke-width="2"/><circle cx="310" cy="1056" r="8" fill="#FFE27A" stroke="#C99A00" stroke-width="2"/><circle cx="310" cy="1188" r="8" fill="#FFE27A" stroke="#C99A00" stroke-width="2"/><circle cx="395" cy="1056" r="8" fill="#FFE27A" stroke="#C99A00" stroke-width="2"/><circle cx="395" cy="1188" r="8" fill="#FFE27A" stroke="#C99A00" stroke-width="2"/><circle cx="480" cy="1056" r="8" fill="#FFE27A" stroke="#C99A00" stroke-width="2"/><circle cx="480" cy="1188" r="8" fill="#FFE27A" stroke="#C99A00" stroke-width="2"/><circle cx="565" cy="1056" r="8" fill="#FFE27A" stroke="#C99A00" stroke-width="2"/><circle cx="565" cy="1188" r="8" fill="#FFE27A" stroke="#C99A00" stroke-width="2"/><circle cx="650" cy="1056" r="8" fill="#FFE27A" stroke="#C99A00" stroke-width="2"/><circle cx="650" cy="1188" r="8" fill="#FFE27A" stroke="#C99A00" stroke-width="2"/><circle cx="735" cy="1056" r="8" fill="#FFE27A" stroke="#C99A00" stroke-width="2"/><circle cx="735" cy="1188" r="8" fill="#FFE27A" stroke="#C99A00" stroke-width="2"/><circle cx="820" cy="1056" r="8" fill="#FFE27A" stroke="#C99A00" stroke-width="2"/><circle cx="820" cy="1188" r="8" fill="#FFE27A" stroke="#C99A00" stroke-width="2"/><circle cx="140" cy="1122" r="8" fill="#FFE27A" stroke="#C99A00" stroke-width="2"/><circle cx="820" cy="1122" r="8" fill="#FFE27A" stroke="#C99A00" stroke-width="2"/></g></svg>